<svg width="100" height="100" viewBox="0 0 100 100" fill="none" xmlns="http://www.w3.org/2000/svg">
<rect width="100" height="100" fill="white"/>
<ellipse cx="50" cy="77" rx="20" ry="7" fill="white" stroke="#56428D" stroke-width="2"/>
<path d="M75.4557 40.7692C75.4557 54.1561 58.875 69.3519 52.5976 74.6252C51.2167 75.7853 49.239 75.7853 47.8581 74.6252C41.5807 69.3519 25 54.1561 25 40.7692C25 27.2782 36.4871 16 50.2279 16C63.9686 16 75.4557 27.2782 75.4557 40.7692Z" fill="white" stroke="#56428D" stroke-width="2"/>
<path d="M50.2267 49.0279C54.871 49.0279 58.636 45.3314 58.636 40.7715C58.636 36.2116 54.871 32.5151 50.2267 32.5151C45.5823 32.5151 41.8174 36.2116 41.8174 40.7715C41.8174 45.3314 45.5823 49.0279 50.2267 49.0279Z" fill="#56428D"/>
<path d="M14.9576 21.1217C14.1062 20.8215 13.6594 19.8879 13.9596 19.0366V19.0366C14.2598 18.1852 15.1933 17.7384 16.0447 18.0386L21.1561 19.8409C22.0075 20.1411 22.4543 21.0747 22.1541 21.926V21.926C21.8539 22.7774 20.9203 23.2242 20.0689 22.924L14.9576 21.1217Z" stroke="#56428D" stroke-width="2" stroke-linejoin="round"/>
<path d="M20.8183 11.7218C20.3059 10.9785 20.4932 9.96066 21.2365 9.44833V9.44833C21.9798 8.93601 22.9977 9.12325 23.51 9.86655L26.5858 14.329C27.0981 15.0723 26.9109 16.0902 26.1676 16.6026V16.6026C25.4243 17.1149 24.4064 16.9276 23.8941 16.1843L20.8183 11.7218Z" stroke="#56428D" stroke-width="2" stroke-linejoin="round"/>
<circle cx="74" cy="51" r="13" fill="white" stroke="#56428D" stroke-width="2"/>
<path d="M72.5 44.5C72.5 43.6716 73.1716 43 74 43V43C74.8284 43 75.5 43.6716 75.5 44.5V50.5C75.5 51.3284 74.8284 52 74 52V52C73.1716 52 72.5 51.3284 72.5 50.5V44.5Z" stroke="#56428D" stroke-width="2" stroke-linejoin="round"/>
<path d="M72.5 57.5C72.5 58.3284 73.1716 59 74 59V59C74.8284 59 75.5 58.3284 75.5 57.5V57.5C75.5 56.6716 74.8284 56 74 56V56C73.1716 56 72.5 56.6716 72.5 57.5V57.5Z" stroke="#56428D" stroke-width="2" stroke-linejoin="round"/>
</svg>
