<svg width="100" height="100" viewBox="0 0 100 100" fill="none" xmlns="http://www.w3.org/2000/svg">
<rect width="100" height="100" fill="white"/>
<path d="M74 23H22C18.134 23 15 26.134 15 30V72C15 75.3137 17.6863 78 21 78H75C78.3137 78 81 75.3137 81 72V30C81 26.134 77.866 23 74 23Z" stroke="#56428D" stroke-width="2" stroke-linejoin="round"/>
<path d="M15 31C15 27.134 18.134 24 22 24H74C77.866 24 81 27.134 81 31V35H15V31Z" fill="#56428D"/>
<path d="M29 20C29 18.8954 29.8954 18 31 18C32.1046 18 33 18.8954 33 20V26C33 27.1046 32.1046 28 31 28C29.8954 28 29 27.1046 29 26V20Z" fill="#56428D" stroke="#56428D" stroke-width="2" stroke-linejoin="round"/>
<path d="M24.5 45C24.5 43.8954 25.3954 43 26.5 43H29.5C30.6046 43 31.5 43.8954 31.5 45V48C31.5 49.1046 30.6046 50 29.5 50H26.5C25.3954 50 24.5 49.1046 24.5 48V45Z" stroke="#56428D" stroke-width="2" stroke-linejoin="round"/>
<path d="M51.5 45C51.5 43.8954 52.3954 43 53.5 43H56.5C57.6046 43 58.5 43.8954 58.5 45V48C58.5 49.1046 57.6046 50 56.5 50H53.5C52.3954 50 51.5 49.1046 51.5 48V45Z" stroke="#56428D" stroke-width="2" stroke-linejoin="round"/>
<path d="M64.5 45C64.5 43.8954 65.3954 43 66.5 43H69.5C70.6046 43 71.5 43.8954 71.5 45V48C71.5 49.1046 70.6046 50 69.5 50H66.5C65.3954 50 64.5 49.1046 64.5 48V45Z" stroke="#56428D" stroke-width="2" stroke-linejoin="round"/>
<path d="M51.5 60C51.5 58.8954 52.3954 58 53.5 58H56.5C57.6046 58 58.5 58.8954 58.5 60V63C58.5 64.1046 57.6046 65 56.5 65H53.5C52.3954 65 51.5 64.1046 51.5 63V60Z" fill="#56428D" stroke="#56428D" stroke-width="2" stroke-linejoin="round"/>
<path d="M37.5 45C37.5 43.8954 38.3954 43 39.5 43H42.5C43.6046 43 44.5 43.8954 44.5 45V48C44.5 49.1046 43.6046 50 42.5 50H39.5C38.3954 50 37.5 49.1046 37.5 48V45Z" fill="#56428D" stroke="#56428D" stroke-width="2" stroke-linejoin="round"/>
<path d="M37.5 60C37.5 58.8954 38.3954 58 39.5 58H42.5C43.6046 58 44.5 58.8954 44.5 60V63C44.5 64.1046 43.6046 65 42.5 65H39.5C38.3954 65 37.5 64.1046 37.5 63V60Z" stroke="#56428D" stroke-width="2" stroke-linejoin="round"/>
<path d="M63 20C63 18.8954 63.8954 18 65 18C66.1046 18 67 18.8954 67 20V26C67 27.1046 66.1046 28 65 28C63.8954 28 63 27.1046 63 26V20Z" fill="#56428D" stroke="#56428D" stroke-width="2" stroke-linejoin="round"/>
<circle cx="80" cy="72" r="13" fill="white" stroke="#56428D" stroke-width="2"/>
<path d="M78.5 65.5C78.5 64.6716 79.1716 64 80 64V64C80.8284 64 81.5 64.6716 81.5 65.5V71.5C81.5 72.3284 80.8284 73 80 73V73C79.1716 73 78.5 72.3284 78.5 71.5V65.5Z" stroke="#56428D" stroke-width="2" stroke-linejoin="round"/>
<path d="M78.5 78.5C78.5 79.3284 79.1716 80 80 80V80C80.8284 80 81.5 79.3284 81.5 78.5V78.5C81.5 77.6716 80.8284 77 80 77V77C79.1716 77 78.5 77.6716 78.5 78.5V78.5Z" stroke="#56428D" stroke-width="2" stroke-linejoin="round"/>
<path d="M10.0549 80.2695C10.9576 80.2695 11.6895 79.5377 11.6895 78.6349V78.6349C11.6895 77.7322 10.9576 77.0004 10.0549 77.0004L4.63504 77.0004C3.73229 77.0004 3.00046 77.7322 3.00046 78.6349V78.6349C3.00046 79.5377 3.73229 80.2695 4.63504 80.2695L10.0549 80.2695Z" stroke="#56428D" stroke-width="2" stroke-linejoin="round"/>
<path d="M17.4229 89.4953C17.4229 90.3981 16.691 91.1299 15.7883 91.1299V91.1299C14.8855 91.1299 14.1537 90.3981 14.1537 89.4953L14.1537 84.0755C14.1537 83.1727 14.8855 82.4409 15.7883 82.4409V82.4409C16.691 82.4409 17.4229 83.1727 17.4229 84.0755L17.4229 89.4953Z" stroke="#56428D" stroke-width="2" stroke-linejoin="round"/>
</svg>
