<svg width="100" height="100" viewBox="0 0 100 100" fill="none" xmlns="http://www.w3.org/2000/svg">
<rect width="100" height="100" fill="white"/>
<path d="M22.8564 66.7144V81.2858C22.8564 84.3628 33.2179 86.8572 45.9993 86.8572C58.7807 86.8572 69.1422 84.3628 69.1422 81.2858V66.7144" stroke="#56428D" stroke-width="2" stroke-linejoin="round"/>
<path d="M27 64.022C24.3881 64.7853 22.8564 65.7135 22.8564 66.7145C22.8564 69.3181 33.2179 71.4288 45.9993 71.4288C58.7807 71.4288 69.1422 69.3181 69.1422 66.7145C69.1422 65.7135 67.6105 64.7853 64.9986 64.022" stroke="#56428D" stroke-width="2" stroke-linejoin="round"/>
<path fill-rule="evenodd" clip-rule="evenodd" d="M27.5879 13.9344C27.5755 14.9008 26.782 15.6742 25.8156 15.6618L25.5656 15.6586C20.5955 15.5948 16.5146 19.5722 16.4509 24.5424L16.4213 26.8422C16.4093 27.781 15.6385 28.5323 14.6997 28.5202V28.5202C13.7609 28.5082 13.0096 27.7374 13.0216 26.7986L13.0511 24.4988C13.1433 17.3196 18.4314 12.0668 25.6105 12.1589L25.8605 12.1621C26.8269 12.1745 27.6003 12.968 27.5879 13.9344V13.9344Z" stroke="#56428D" stroke-width="2" stroke-linejoin="round"/>
<path d="M22.8564 46.1431V60.7145C22.8564 63.7915 33.2179 66.2859 45.9993 66.2859C58.7807 66.2859 69.1422 63.7915 69.1422 60.7145V46.1431" stroke="#56428D" stroke-width="2" stroke-linejoin="round"/>
<ellipse cx="45.9993" cy="46.143" rx="23.1429" ry="4.71429" stroke="#56428D" stroke-width="2" stroke-linejoin="round"/>
<path d="M46.0003 45.7141C58.7817 45.7141 69.1431 43.2197 69.1431 40.1427V25.5713H22.8574V40.1427C22.8574 43.2197 33.2188 45.7141 46.0003 45.7141Z" fill="white" stroke="#56428D" stroke-width="2" stroke-linejoin="round"/>
<ellipse cx="46" cy="25.1429" rx="24" ry="5.14286" fill="#56428D"/>
<circle cx="72" cy="68" r="13" fill="white" stroke="#56428D" stroke-width="2"/>
<circle cx="72" cy="71.25" r="1.25" fill="#56428D"/>
<path d="M67 65.4408C68.1605 63.9551 69.9687 63 72 63C74.0313 63 75.8395 63.9551 77 65.4408" stroke="#56428D" stroke-width="2" stroke-linecap="round"/>
<path d="M68.5 68.7085C69.3124 67.6686 70.5781 67 72 67C73.4219 67 74.6876 67.6686 75.5 68.7085" stroke="#56428D" stroke-width="2" stroke-linecap="round"/>
</svg>
