<svg width="100" height="100" viewBox="0 0 100 100" fill="none" xmlns="http://www.w3.org/2000/svg">
<rect width="100" height="100" fill="white"/>
<path d="M22.1644 29.5097C22.8449 26.8559 25.2367 25 27.9764 25H73.0236C75.7633 25 78.1551 26.8559 78.8356 29.5097L83.6951 48.4617C83.8963 49.2464 83.9365 50.0637 83.8133 50.8643L80.9903 69.2142C80.54 72.1412 78.0215 74.3019 75.06 74.3019H25.94C22.9785 74.3019 20.46 72.1412 20.0097 69.2142L17.1867 50.8643C17.0635 50.0637 17.1037 49.2464 17.3049 48.4617L22.1644 29.5097Z" fill="white" stroke="#56428D" stroke-width="2" stroke-linejoin="round"/>
<path d="M17.6318 49.6509H34.2238L38.7499 55.9874C39.8761 57.5641 41.6946 58.4999 43.6323 58.4999H57.9993C59.937 58.4999 61.7554 57.5641 62.8817 55.9874L67.4078 49.6509H83.9998" stroke="#56428D" stroke-width="2" stroke-linejoin="round"/>
<path d="M71.1505 37.6416H29.8486C27.6395 37.6416 25.8486 39.4325 25.8486 41.6416V48.019L25.9205 47.3545C26.2502 44.3084 28.8219 42 31.8857 42H69.0383C71.9176 42 74.391 44.0454 74.9316 46.8735L75.1505 48.019V41.6416C75.1505 39.4325 73.3597 37.6416 71.1505 37.6416Z" fill="#56428D" stroke="#56428D" stroke-width="2" stroke-linejoin="round"/>
<path d="M75.1505 49.019V47.9624C75.1505 45.7533 73.3597 43.9624 71.1505 43.9624H29.8486C27.6395 43.9624 25.8486 45.7533 25.8486 47.9624V49.019" stroke="#56428D" stroke-width="2" stroke-linejoin="round"/>
<path d="M75.1505 42.6982V35.3208C75.1505 33.1117 73.3597 31.3208 71.1505 31.3208H29.8486C27.6395 31.3208 25.8486 33.1117 25.8486 35.3208V42.6982" stroke="#56428D" stroke-width="2" stroke-linejoin="round"/>
<path d="M84.8805 23.4454C83.9778 23.4316 83.2349 24.1522 83.2211 25.0548V25.0548C83.2073 25.9575 83.9279 26.7004 84.8305 26.7142L90.2497 26.797C91.1524 26.8108 91.8953 26.0902 91.9091 25.1876V25.1876C91.9229 24.2849 91.2023 23.542 90.2997 23.5282L84.8805 23.4454Z" stroke="#56428D" stroke-width="2" stroke-linejoin="round"/>
<path d="M77.6547 14.108C77.6685 13.2054 78.4114 12.4848 79.3141 12.4986V12.4986C80.2167 12.5124 80.9373 13.2553 80.9235 14.158L80.8407 19.5772C80.8269 20.4798 80.084 21.2004 79.1813 21.1866V21.1866C78.2786 21.1728 77.5581 20.4299 77.5719 19.5272L77.6547 14.108Z" stroke="#56428D" stroke-width="2" stroke-linejoin="round"/>
<circle cx="20" cy="70" r="13" fill="white" stroke="#56428D" stroke-width="2"/>
<path d="M18.5 63.5C18.5 62.6716 19.1716 62 20 62V62C20.8284 62 21.5 62.6716 21.5 63.5V69.5C21.5 70.3284 20.8284 71 20 71V71C19.1716 71 18.5 70.3284 18.5 69.5V63.5Z" stroke="#56428D" stroke-width="2" stroke-linejoin="round"/>
<path d="M18.5 76.5C18.5 77.3284 19.1716 78 20 78V78C20.8284 78 21.5 77.3284 21.5 76.5V76.5C21.5 75.6716 20.8284 75 20 75V75C19.1716 75 18.5 75.6716 18.5 76.5V76.5Z" stroke="#56428D" stroke-width="2" stroke-linejoin="round"/>
</svg>
