<svg width="100" height="100" viewBox="0 0 100 100" fill="none" xmlns="http://www.w3.org/2000/svg">
<path d="M0 0H100V100H0V0Z" fill="white"/>
<path d="M88 49C88 45.6863 85.3137 43 82 43H41C37.6863 43 35 45.6863 35 49V73.8C35 77.1137 37.6863 79.8 41 79.8H68.4562L75.035 85.8906C76.3155 87.076 78.3937 86.1678 78.3937 84.4229V79.8H82C85.3137 79.8 88 77.1137 88 73.8V49Z" stroke="#56428D" stroke-width="2" stroke-linejoin="round"/>
<path d="M11 34C11 29.5817 14.5817 26 19 26H65C69.4183 26 73 29.5817 73 34V61.4C73 65.8183 69.4183 69.4 65 69.4H33.8625L25.6021 77.1097C24.3237 78.3029 22.2375 77.3963 22.2375 75.6476V69.4H19C14.5817 69.4 11 65.8183 11 61.4V34Z" fill="white" stroke="#56428D" stroke-width="2" stroke-linejoin="round"/>
<circle cx="27.275" cy="47.7003" r="4.65" fill="#56428D"/>
<circle cx="41.9996" cy="47.7003" r="4.65" fill="#56428D"/>
<circle cx="56.7252" cy="47.7003" r="4.65" fill="#56428D"/>
<path d="M75.4336 15.1668C75.4336 14.2641 74.7018 13.5322 73.799 13.5322V13.5322C72.8962 13.5322 72.1644 14.2641 72.1644 15.1668V20.5866C72.1644 21.4894 72.8962 22.2212 73.799 22.2212V22.2212C74.7018 22.2212 75.4336 21.4894 75.4336 20.5866V15.1668Z" stroke="#56428D" stroke-width="2" stroke-linejoin="round"/>
<path d="M78.9783 27.9863C78.0756 27.9863 77.3438 27.2545 77.3438 26.3517V26.3517C77.3438 25.449 78.0756 24.7172 78.9783 24.7172L84.3982 24.7172C85.3009 24.7172 86.0327 25.449 86.0327 26.3517V26.3517C86.0327 27.2545 85.3009 27.9863 84.3982 27.9863L78.9783 27.9863Z" stroke="#56428D" stroke-width="2" stroke-linejoin="round"/>
</svg>
