<svg width="100" height="100" viewBox="0 0 100 100" fill="none" xmlns="http://www.w3.org/2000/svg">
<rect width="100" height="100" fill="white"/>
<path d="M14.3975 36C14.3975 28.268 20.6655 22 28.3975 22H63.3975C71.1294 22 77.3975 28.268 77.3975 36V48C77.3975 50.2091 75.6066 52 73.3975 52H17.3975C15.7406 52 14.3975 50.6569 14.3975 49V36Z" fill="white" stroke="#56428D" stroke-width="2"/>
<path fill-rule="evenodd" clip-rule="evenodd" d="M64 13C63.4477 13 63 13.4477 63 14V27.0275C62.8358 27.0093 62.669 27 62.5 27C60.0147 27 58 29.0147 58 31.5C58 33.9853 60.0147 36 62.5 36C64.9853 36 67 33.9853 67 31.5C67 31.3854 66.9957 31.2719 66.9873 31.1595C66.9956 31.1075 67 31.0543 67 31V14C67 13.4477 66.5522 13 66 13H64Z" fill="white"/>
<path d="M63 27.0275L62.8901 28.0214L64 28.1441V27.0275H63ZM66.9873 31.1595L65.9999 31.0012L65.9813 31.1171L65.9901 31.2341L66.9873 31.1595ZM64 14V14V12C62.8954 12 62 12.8954 62 14H64ZM64 27.0275V14H62V27.0275H64ZM62.5 28C62.6322 28 62.7623 28.0073 62.8901 28.0214L63.1098 26.0335C62.9093 26.0113 62.7058 26 62.5 26V28ZM59 31.5C59 29.567 60.567 28 62.5 28V26C59.4624 26 57 28.4624 57 31.5H59ZM62.5 35C60.567 35 59 33.433 59 31.5H57C57 34.5376 59.4624 37 62.5 37V35ZM66 31.5C66 33.433 64.433 35 62.5 35V37C65.5376 37 68 34.5376 68 31.5H66ZM65.9901 31.2341C65.9967 31.3217 66 31.4104 66 31.5H68C68 31.3605 67.9948 31.2221 67.9845 31.0848L65.9901 31.2341ZM66 31C66 31.0011 65.9999 31.0014 65.9999 31.0012L67.9747 31.3177C67.9914 31.2136 68 31.1075 68 31H66ZM66 14V31H68V14H66ZM66 14H68C68 12.8954 67.1045 12 66 12V14ZM64 14H66V12H64V14Z" fill="#56428D"/>
<path d="M14.3975 35.5C14.3975 28.0442 20.4416 22 27.8975 22C35.3533 22 41.3975 28.0442 41.3975 35.5V52H17.3975C15.7406 52 14.3975 50.6569 14.3975 49V35.5Z" fill="#56428D"/>
<path fill-rule="evenodd" clip-rule="evenodd" d="M6 50C6 48.3431 7.34315 47 9 47H41V53H9C7.34315 53 6 51.6569 6 50Z" fill="#56428D"/>
<path d="M8.78791 56C7.88515 56 7.15332 56.7318 7.15332 57.6346V57.6346C7.15332 58.5373 7.88515 59.2692 8.78791 59.2692L14.2077 59.2692C15.1105 59.2692 15.8423 58.5373 15.8423 57.6346V57.6346C15.8423 56.7318 15.1105 56 14.2077 56L8.78791 56Z" stroke="#56428D" stroke-width="2" stroke-linejoin="round"/>
<path d="M42.3975 53C42.3975 52.4477 42.8452 52 43.3975 52H49.3975C49.9497 52 50.3975 52.4477 50.3975 53V85C50.3975 86.1046 49.502 87 48.3975 87H44.3975C43.2929 87 42.3975 86.1046 42.3975 85V53Z" fill="white" stroke="#56428D" stroke-width="2" stroke-linejoin="round"/>
<circle cx="40" cy="17" r="13" fill="white" stroke="#56428D" stroke-width="2"/>
<path d="M38.5 10.5C38.5 9.67157 39.1716 9 40 9V9C40.8284 9 41.5 9.67157 41.5 10.5V16.5C41.5 17.3284 40.8284 18 40 18V18C39.1716 18 38.5 17.3284 38.5 16.5V10.5Z" stroke="#56428D" stroke-width="2" stroke-linejoin="round"/>
<path d="M38.5 23.5C38.5 24.3284 39.1716 25 40 25V25C40.8284 25 41.5 24.3284 41.5 23.5V23.5C41.5 22.6716 40.8284 22 40 22V22C39.1716 22 38.5 22.6716 38.5 23.5V23.5Z" stroke="#56428D" stroke-width="2" stroke-linejoin="round"/>
</svg>
