<svg width="100" height="100" viewBox="0 0 100 100" fill="none" xmlns="http://www.w3.org/2000/svg">
<rect width="100" height="100" fill="white"/>
<path d="M28.5127 45.9212C28.5127 34.4104 37.844 25.0791 49.3548 25.0791C60.8656 25.0791 70.1969 34.4104 70.1969 45.9212V67.7633H28.5127V45.9212Z" fill="white" stroke="#56428D" stroke-width="2" stroke-linejoin="round"/>
<path d="M20 70C20 67.7909 21.7909 66 24 66H76C78.2091 66 80 67.7909 80 70C80 72.2091 78.2091 74 76 74H24C21.7909 74 20 72.2091 20 70Z" fill="#56428D"/>
<path d="M50 81.1846C54.4183 81.1846 58 77.6028 58 73.1846H42C42 77.6028 45.5817 81.1846 50 81.1846Z" stroke="#56428D" stroke-width="2" stroke-linejoin="round"/>
<circle cx="49.3543" cy="21.6053" r="2.60526" fill="#56428D" stroke="#56428D" stroke-width="2" stroke-linejoin="round"/>
<circle cx="22.8857" cy="22.8857" r="1.88571" stroke="#56428D" stroke-width="2" stroke-linejoin="round"/>
<circle cx="70" cy="54" r="13" fill="white" stroke="#56428D" stroke-width="2"/>
<path d="M68.5 47.5C68.5 46.6716 69.1716 46 70 46V46C70.8284 46 71.5 46.6716 71.5 47.5V53.5C71.5 54.3284 70.8284 55 70 55V55C69.1716 55 68.5 54.3284 68.5 53.5V47.5Z" stroke="#56428D" stroke-width="2" stroke-linejoin="round"/>
<path d="M68.5 60.5C68.5 61.3284 69.1716 62 70 62V62C70.8284 62 71.5 61.3284 71.5 60.5V60.5C71.5 59.6716 70.8284 59 70 59V59C69.1716 59 68.5 59.6716 68.5 60.5V60.5Z" stroke="#56428D" stroke-width="2" stroke-linejoin="round"/>
<path d="M23.2804 34.9454L23.2669 35.0162C23.1189 35.7934 23.6224 36.5454 24.3974 36.7046V36.7046C25.1883 36.8671 25.9592 36.3509 26.1103 35.5578L26.1149 35.5333V35.5333C26.1151 35.5324 26.1153 35.5315 26.1155 35.5306C26.1156 35.5299 26.1158 35.529 26.1159 35.5283C26.1174 35.5214 26.1202 35.5077 26.1248 35.4873C26.1338 35.4467 26.1493 35.3798 26.1724 35.2896C26.2187 35.109 26.2955 34.8354 26.412 34.4906C26.6454 33.7998 27.0357 32.831 27.6552 31.754C28.8906 29.6064 31.0314 27.0359 34.6793 25.3523V25.3523C35.4123 25.014 35.7471 24.1519 35.4294 23.4098L35.3984 23.3372C35.0849 22.6048 34.2287 22.2757 33.5054 22.6095V22.6095C29.2044 24.5945 26.6481 27.6518 25.1737 30.2148C24.4383 31.4932 23.9705 32.6504 23.6845 33.4969C23.5413 33.9207 23.443 34.2686 23.3793 34.5172C23.3474 34.6416 23.3241 34.7413 23.308 34.8136C23.3 34.8497 23.2938 34.879 23.2893 34.9011L23.2837 34.9287L23.2818 34.9385L23.281 34.9423L23.2807 34.9439" stroke="#56428D" stroke-width="2" stroke-linejoin="round"/>
</svg>
